{
  "accessors": [
    {
      "bufferView": 0,
      "componentType": 5126,
      "count": 65535,
      "max": [
        3.4725415706634521,
        9.6091527938842773,
        3.8769922256469727
      ],
      "min": [
        -14.23038387298584,
        -8.6245803833007812,
        -2.1065232753753662
      ],
      "type": "VEC3"
    },
    {
      "bufferView": 1,
      "componentType": 5126,
      "count": 65535,
      "max": [
        1,
        1,
        1,
        1
      ],
      "min": [
        0.7607843279838562,
        0.78823530673980713,
        0.61960786581039429,
        1
      ],
      "type": "VEC4"
    },
    {
      "bufferView": 0,
      "byteOffset": 786420,
      "componentType": 5126,
      "count": 65535,
      "max": [
        3.5734627246856689,
        9.4908847808837891,
        3.7213244438171387
      ],
      "min": [
        -14.174880981445312,
        -8.5934772491455078,
        -2.1600096225738525
      ],
      "type": "VEC3"
    },
    {
      "bufferView": 1,
      "byteOffset": 1048560,
      "componentType": 5126,
      "count": 65535,
      "max": [
        1,
        1,
        1,
        1
      ],
      "min": [
        0.7607843279838562,
        0.78823530673980713,
        0.61960786581039429,
        1
      ],
      "type": "VEC4"
    },
    {
      "bufferView": 0,
      "byteOffset": 1572840,
      "componentType": 5126,
      "count": 65535,
      "max": [
        3.5790970325469971,
        9.2130508422851562,
        3.7498223781585693
      ],
      "min": [
        -14.175151824951172,
        -8.2808599472045898,
        -2.1220381259918213
      ],
      "type": "VEC3"
    },
    {
      "bufferView": 1,
      "byteOffset": 2097120,
      "componentType": 5126,
      "count": 65535,
      "max": [
        1,
        1,
        1,
        1
      ],
      "min": [
        0.7607843279838562,
        0.78823530673980713,
        0.61568629741668701,
        1
      ],
      "type": "VEC4"
    },
    {
      "bufferView": 0,
      "byteOffset": 2359260,
      "componentType": 5126,
      "count": 65535,
      "max": [
        3.4260518550872803,
        9.4874467849731445,
        3.8667190074920654
      ],
      "min": [
        -14.063543319702148,
        -8.4947385787963867,
        -2.1485004425048828
      ],
      "type": "VEC3"
    },
    {
      "bufferView": 1,
      "byteOffset": 3145680,
      "componentType": 5126,
      "count": 65535,
      "max": [
        1,
        1,
        1,
        1
      ],
      "min": [
        0.7607843279838562,
        0.78823530673980713,
        0.61568629741668701,
        1
      ],
      "type": "VEC4"
    },
    {
      "bufferView": 0,
      "byteOffset": 3145680,
      "componentType": 5126,
      "count": 37860,
      "max": [
        3.4728450775146484,
        9.5209026336669922,
        3.7566852569580078
      ],
      "min": [
        -14.047273635864258,
        -8.3275604248046875,
        -2.1284186840057373
      ],
      "type": "VEC3"
    },
    {
      "bufferView": 1,
      "byteOffset": 4194240,
      "componentType": 5126,
      "count": 37860,
      "max": [
        1,
        1,
        1,
        1
      ],
      "min": [
        0.7607843279838562,
        0.78823530673980713,
        0.61960786581039429,
        1
      ],
      "type": "VEC4"
    }
  ],
  "asset": {
    "extras": {
      "author": "Loïc Norgeot (https://sketchfab.com/norgeotloic)",
      "license": "CC-BY-4.0 (http://creativecommons.org/licenses/by/4.0/)",
      "source": "https://sketchfab.com/3d-models/particles-tests-1-d66e0d76670b41698ae619a9074f3caf",
      "title": "Particles Tests - 1"
    },
    "generator": "Sketchfab-7.82.0",
    "version": "2.0"
  },
  "bufferViews": [
    {
      "buffer": 0,
      "byteLength": 3600000,
      "byteOffset": 0,
      "byteStride": 12,
      "name": "floatBufferViews",
      "target": 34962
    },
    {
      "buffer": 0,
      "byteLength": 4800000,
      "byteOffset": 3600000,
      "byteStride": 16,
      "name": "floatBufferViews",
      "target": 34962
    }
  ],
  "buffers": [
    {
      "byteLength": 8400000,
      "uri": "scene.bin"
    }
  ],
  "extensionsUsed": [
    "KHR_materials_unlit"
  ],
  "materials": [
    {
      "alphaMode": "BLEND",
      "doubleSided": true,
      "extensions": {
        "KHR_materials_unlit": {}
      },
      "name": "Scene_-_Root",
      "pbrMetallicRoughness": {
        "baseColorFactor": [
          1,
          1,
          1,
          0.33098323170731708
        ],
        "metallicFactor": 0,
        "roughnessFactor": 1
      }
    }
  ],
  "meshes": [
    {
      "primitives": [
        {
          "attributes": {
            "COLOR_0": 1,
            "POSITION": 0
          },
          "material": 0,
          "mode": 0
        }
      ]
    },
    {
      "primitives": [
        {
          "attributes": {
            "COLOR_0": 3,
            "POSITION": 2
          },
          "material": 0,
          "mode": 0
        }
      ]
    },
    {
      "primitives": [
        {
          "attributes": {
            "COLOR_0": 5,
            "POSITION": 4
          },
          "material": 0,
          "mode": 0
        }
      ]
    },
    {
      "primitives": [
        {
          "attributes": {
            "COLOR_0": 7,
            "POSITION": 6
          },
          "material": 0,
          "mode": 0
        }
      ]
    },
    {
      "primitives": [
        {
          "attributes": {
            "COLOR_0": 9,
            "POSITION": 8
          },
          "material": 0,
          "mode": 0
        }
      ]
    }
  ],
  "nodes": [
    {
      "children": [
        1
      ],
      "name": "RootNode (gltf orientation matrix)",
      "rotation": [
        -0.70710678118654746,
        -0,
        -0,
        0.70710678118654757
      ]
    },
    {
      "children": [
        2
      ],
      "name": "RootNode (model correction matrix)"
    },
    {
      "children": [
        3,
        4,
        5,
        6,
        7
      ],
      "name": "Geode"
    },
    {
      "mesh": 0,
      "name": ""
    },
    {
      "mesh": 1,
      "name": ""
    },
    {
      "mesh": 2,
      "name": ""
    },
    {
      "mesh": 3,
      "name": ""
    },
    {
      "mesh": 4,
      "name": ""
    }
  ],
  "scene": 0,
  "scenes": [
    {
      "name": "OSG_Scene",
      "nodes": [
        0
      ]
    }
  ]
}

